<svg width="135" height="87" viewBox="0 0 135 87" fill="none" xmlns="http://www.w3.org/2000/svg">
<path d="M67.5074 0.00742836C67.448 0.00742836 67.3886 0 67.3292 0C40.35 0 10.2212 35.8633 2.59242 70.4044C1.30735 76.2207 0.45312 81.6517 0 87H135C134.547 81.6517 133.693 76.2207 132.408 70.4044C124.779 35.8559 94.65 0 67.6708 0C67.6263 0.00742819 67.5668 0.00742836 67.5074 0.00742836Z" fill="#1E80FF"/>
<path d="M80.544 36.5244C82.6198 36.5244 84.3026 34.8416 84.3026 32.7657C84.3026 30.6899 82.6198 29.0071 80.544 29.0071C78.4681 29.0071 76.7853 30.6899 76.7853 32.7657C76.7853 34.8416 78.4681 36.5244 80.544 36.5244Z" fill="#2242C6"/>
<path d="M54.4785 36.5615C56.5543 36.5615 58.2371 34.8787 58.2371 32.8029C58.2371 30.727 56.5543 29.0442 54.4785 29.0442C52.4026 29.0442 50.7198 30.727 50.7198 32.8029C50.7198 34.8787 52.4026 36.5615 54.4785 36.5615Z" fill="#2242C6"/>
<path d="M69.5205 49.3677C66.2298 49.3677 63.0803 49.0632 60.0941 48.4466C52.9779 46.9833 48.2759 44.0863 45.5869 41.9098C45.2749 41.6573 45.2303 41.2041 45.4754 40.8996C45.728 40.5876 46.1811 40.543 46.4857 40.7882C60.1313 51.7967 80.6183 47.2878 88.7893 44.8291C89.1681 44.7177 89.5692 44.9331 89.688 45.3119C89.7995 45.6908 89.5841 46.0919 89.2052 46.2107C82.193 48.3203 75.6116 49.3677 69.5205 49.3677Z" fill="#2242C6"/>
<path d="M79.6599 0.13375C79.6599 0.13375 87.0882 -0.0296699 93.3427 3.14217C98.2676 5.63804 99.2332 9.43385 99.4858 10.4218C99.7532 11.484 100.154 14.5519 100.154 14.5519C100.563 17.0923 97.8813 19.0014 95.6157 17.7831L91.9313 15.7998C91.0325 15.317 89.948 15.3021 89.0417 15.7701L85.3202 17.6791C83.0323 18.8528 80.3879 16.8918 80.841 14.3587L81.5913 10.2361C81.777 9.23329 81.4501 8.20077 80.7222 7.48023L77.7509 4.53124C75.9087 2.71876 77.1046 0.482875 79.6599 0.13375Z" fill="#FFD426"/>
<path d="M13.3931 77.9665C37.3119 53.8843 43.8858 32.5876 51.262 29.9655C62.1443 26.088 66.007 44.2722 60.3615 72.0314" fill="#1E80FF"/>
<path d="M13.393 78.6275C13.2222 78.6275 13.0587 78.5606 12.925 78.4344C12.665 78.1744 12.665 77.7584 12.925 77.4984C26.0581 64.2836 33.8874 51.9826 39.6146 43.0019C44.376 35.5291 47.5181 30.5968 51.0391 29.3414C53.8841 28.3312 56.4468 28.71 58.4524 30.4556C64.239 35.4771 65.2195 51.4552 61.0077 72.1575C60.9335 72.5141 60.5843 72.7444 60.2278 72.6701C59.8712 72.5958 59.641 72.2467 59.7152 71.8901C63.771 51.9603 62.9391 36.0862 57.5908 31.451C55.9417 30.0174 53.8841 29.7277 51.4848 30.5819C48.3872 31.6887 45.1783 36.725 40.7288 43.7075C34.9719 52.7402 27.098 65.1082 13.861 78.4269C13.7347 78.5606 13.5639 78.6275 13.393 78.6275Z" fill="#2242C6"/>
<path d="M120.255 77.9665C96.3362 53.8843 89.7622 32.5876 82.386 29.9655C71.5037 26.088 67.6411 44.2722 73.2865 72.0314" fill="#1E80FF"/>
<path d="M120.255 78.6276C120.084 78.6276 119.913 78.5608 119.787 78.4345C106.557 65.1157 98.6762 52.7478 92.9193 43.7151C88.4773 36.7326 85.2608 31.6963 82.1633 30.5895C79.764 29.7353 77.7064 30.025 76.0573 31.4586C70.7165 36.0938 69.8771 51.9678 73.9329 71.8977C74.0072 72.2542 73.7769 72.6034 73.4203 72.6776C73.0638 72.7519 72.7146 72.5217 72.6403 72.1651C68.4285 51.4627 69.4091 35.4847 75.1956 30.4632C77.2012 28.7176 79.7714 28.3388 82.609 29.349C86.13 30.6044 89.2795 35.5367 94.0336 43.0094C99.7533 51.9901 107.59 64.2912 120.723 77.5134C120.983 77.7734 120.976 78.1894 120.723 78.4494C120.589 78.5682 120.419 78.6276 120.255 78.6276Z" fill="#2242C6"/>
</svg>
