<svg width="135" height="96" viewBox="0 0 135 96" fill="none" xmlns="http://www.w3.org/2000/svg">
<path d="M67.2112 0.007479C67.1513 0.007479 67.0915 0 67.0317 0C40.1726 0 10.1721 35.6999 2.58041 70.0983C1.3014 75.8949 0.456252 81.4447 0 86.7702H134.415C133.959 81.4447 133.113 75.8949 131.834 70.0983C124.243 35.7073 94.2422 0 67.3832 0C67.3308 0 67.271 0.007479 67.2112 0.007479Z" fill="#1E80FF"/>
<path d="M82.7536 36.3582C84.819 36.3582 86.4933 34.6839 86.4933 32.6184C86.4933 30.553 84.819 28.8787 82.7536 28.8787C80.6882 28.8787 79.0138 30.553 79.0138 32.6184C79.0138 34.6839 80.6882 36.3582 82.7536 36.3582Z" fill="#2242C6"/>
<path d="M56.7996 36.396C58.865 36.396 60.5394 34.7217 60.5394 32.6563C60.5394 30.5909 58.865 28.9165 56.7996 28.9165C54.7342 28.9165 53.0598 30.5909 53.0598 32.6563C53.0598 34.7217 54.7342 36.396 56.7996 36.396Z" fill="#2242C6"/>
<path d="M90.5098 45.1166C90.3976 44.7351 90.0013 44.5257 89.6198 44.6379C60.3374 53.4263 47.2108 40.6363 45.3858 38.6393C47.4427 35.453 46.6722 32.4238 46.6648 32.3789C46.56 31.9975 46.1712 31.7731 45.7897 31.8778C45.4082 31.9825 45.1838 32.3714 45.2811 32.7529C45.3409 32.9773 46.6573 38.3625 39.2899 41.8106C38.9309 41.9752 38.7739 42.4015 38.9459 42.7605C39.0656 43.0223 39.3274 43.1719 39.5966 43.1719C39.7013 43.1719 39.7986 43.1495 39.9033 43.1046C42.0051 42.1173 43.4785 40.9729 44.5181 39.7986C45.6625 41.0253 48.9236 44.0844 54.795 46.3806C59.8661 48.3702 65.1991 49.1181 70.375 49.1181C77.6301 49.1181 84.5786 47.6372 90.0387 45.9992C90.4127 45.8944 90.622 45.498 90.5098 45.1166Z" fill="#2242C6"/>
<path d="M79.3055 0.127025C79.3055 0.127025 86.7028 -0.0300448 92.9258 3.11884C97.8249 5.60205 98.7897 9.37922 99.0365 10.3665C99.2983 11.4211 99.7022 14.4803 99.7022 14.4803C100.114 17.0084 97.4434 18.9156 95.1845 17.6965L91.5121 15.7219C90.6146 15.2357 89.5376 15.2282 88.6325 15.692L84.9226 17.5992C82.6414 18.7735 80.0086 16.8139 80.4649 14.2933L81.2128 10.1945C81.3923 9.19223 81.0707 8.16753 80.3526 7.4495L77.3983 4.51004C75.5732 2.70747 76.7624 0.471084 79.3055 0.127025Z" fill="#FFD426"/>
<path d="M33.9795 54.9971C39.0507 74.5486 48.8115 80.1134 53.8975 86.0147C63.1273 96.7329 34.3834 100.66 10.1572 84.4964" fill="#1E80FF"/>
<path d="M43.3365 96C34.1291 96 21.3765 92.7763 9.79073 85.0424C9.49154 84.8405 9.40928 84.4291 9.61122 84.1299C9.81317 83.8307 10.2245 83.7485 10.5237 83.9504C29.2375 96.4338 50.068 96.4861 54.2341 91.7665C55.4907 90.3454 55.2065 88.5578 53.3964 86.4486C52.3642 85.2444 51.0927 84.0252 49.7539 82.7312C44.5406 77.7125 37.4052 70.8388 33.3438 55.1616C33.254 54.8101 33.4635 54.4511 33.815 54.3613C34.1665 54.2716 34.5255 54.481 34.6153 54.8325C38.5869 70.1507 45.5654 76.8748 50.6664 81.7813C52.0277 83.0977 53.3217 84.3393 54.3912 85.5884C57.4279 89.1113 56.2162 91.5197 55.2215 92.6416C53.3291 94.7808 49.0059 96 43.3365 96Z" fill="#2242C6"/>
<path d="M105.828 54.9971C100.757 74.5486 90.9961 80.1134 85.91 86.0147C76.6803 96.7329 105.424 100.66 129.65 84.4964" fill="#1E80FF"/>
<path d="M96.4711 96C90.8091 96 86.4784 94.7808 84.5861 92.6416C83.5913 91.5197 82.3796 89.1113 85.4163 85.5884C86.4934 84.3393 87.7799 83.0977 89.1411 81.7813C94.2347 76.8748 101.221 70.1432 105.192 54.8325C105.282 54.481 105.641 54.2716 105.993 54.3613C106.344 54.4511 106.554 54.8101 106.464 55.1616C102.402 70.8388 95.2669 77.7125 90.0536 82.7312C88.7148 84.0252 87.4433 85.2444 86.4111 86.4486C84.5936 88.5578 84.3093 90.3454 85.5734 91.7665C89.7395 96.4786 110.578 96.4338 129.284 83.9504C129.583 83.7485 129.994 83.8307 130.196 84.1299C130.398 84.4291 130.316 84.8405 130.017 85.0424C118.431 92.7763 105.686 96 96.4711 96Z" fill="#2242C6"/>
</svg>
