<svg data-v-0dd9719b="" version="1.0" xmlns="http://www.w3.org/2000/svg"
  xmlns:xlink="http://www.w3.org/1999/xlink" width="100%" height="100%"
  viewBox="0 0 340.000000 250.000000" preserveAspectRatio="xMidYMid meet"
  color-interpolation-filters="sRGB" style="margin: auto;">
  <g data-v-0dd9719b="" fill="#F9D849" class="basesvg"
    transform="translate(55.589996337890625,105.57500076293945)">
    <g fill-rule="" class="tp-name">
      <g transform="scale(1)">
        <g>
          <g fill="#EA3355" data-gra-ignore="true" transform="translate(1.5, 1.5)">
            <path
              d="M13.67 1.76L1.42 1.76 6.03-36.01 11.66-36.01 10.39-25.52 17.1-25.52Q22.19-25.52 24.74-23.17 27.29-20.82 27.29-16.22L27.29-16.22Q27.29-15.04 27.14-13.77L27.14-13.77 26.7-10.04Q25.28 1.76 13.67 1.76L13.67 1.76ZM7.69-3.48L14.3-3.48Q20.18-3.48 20.97-9.9L20.97-9.9 21.46-13.91Q21.55-14.89 21.55-15.28L21.55-15.28Q21.55-20.28 16.46-20.28L16.46-20.28 9.75-20.28 7.69-3.48ZM40.61-29.2L34.19-29.2 34.93-35.08 41.35-35.08 40.61-29.2ZM39.83-25.52L36.45 1.76 30.81 1.76 34.19-25.52 39.83-25.52ZM48.6 1.76L42.96 1.76 47.57-36.01 53.2-36.01 48.6 1.76ZM60.6 1.76L54.96 1.76 59.57-36.01 65.2-36.01 60.6 1.76ZM67.41-9.99L67.85-13.72Q69.27-25.52 80.49-25.52L80.49-25.52 86.91-25.52 88.18-36.01 93.81-36.01 89.21 1.76 77.4 1.76Q67.26 1.76 67.26-7.54L67.26-7.54Q67.26-8.67 67.41-9.99L67.41-9.99ZM78.04-3.48L84.21-3.48 86.27-20.38 79.85-20.38Q74.32-20.38 73.53-13.86L73.53-13.86 73.04-9.85Q72.94-8.87 72.94-8.43L72.94-8.43Q72.94-3.48 78.04-3.48L78.04-3.48ZM96.95-9.9L97.63-15.28 118.6-15.28 117.91-9.9 96.95-9.9ZM123.35-9.99L123.79-13.72Q125.21-25.52 136.43-25.52L136.43-25.52 142.85-25.52 144.12-36.01 149.76-36.01 145.15 1.76 133.35 1.76Q123.21 1.76 123.21-7.54L123.21-7.54Q123.21-8.67 123.35-9.99L123.35-9.99ZM133.98-3.48L140.16-3.48 142.21-20.38 135.8-20.38Q130.26-20.38 129.48-13.86L129.48-13.86 128.99-9.85Q128.89-8.87 128.89-8.43L128.89-8.43Q128.89-3.48 133.98-3.48L133.98-3.48ZM165.38-25.72L166.36-25.72Q171.41-25.72 173.98-23.34 176.55-20.97 176.55-16.31L176.55-16.31Q176.55-15.24 176.41-13.96L176.41-13.96 175.87-9.55 157.6-9.55 157.6-9.5Q157.5-8.43 157.5-8.03L157.5-8.03Q157.5-5.54 158.94-4.34 160.39-3.14 163.82-3.14L163.82-3.14 166.22-3.14Q168.76-3.14 173.96-3.58L173.96-3.58 173.42 1.52Q169.11 1.96 165.68 1.96L165.68 1.96 163.28 1.96Q157.35 1.96 154.58-0.44 151.81-2.84 151.81-7.5L151.81-7.5Q151.81-8.62 151.96-9.8L151.96-9.8 152.45-13.91Q153.14-19.79 156.32-22.76 159.51-25.72 165.38-25.72L165.38-25.72ZM158.18-14.3L170.82-14.3 170.82-14.35Q170.92-15.43 170.92-15.92L170.92-15.92Q170.92-18.27 169.67-19.5 168.42-20.72 165.73-20.72L165.73-20.72 164.75-20.72Q158.97-20.72 158.18-14.3L158.18-14.3ZM187.48 1.96L185.81 1.96Q181.31 1.86 178.02 1.57L178.02 1.57 178.76-3.72Q183.56-3.28 186.45-3.18L186.45-3.18 188.12-3.18Q191.25-3.18 192.5-3.97 193.75-4.75 194.04-6.22L194.04-6.22Q194.09-6.47 194.09-6.91L194.09-6.91Q194.09-8.13 193.7-8.52L193.7-8.52Q193.36-9.06 192.57-9.26 191.79-9.45 189.58-9.7L189.58-9.7 188.46-9.85Q185.91-10.04 183.61-10.73L183.61-10.73Q181.8-11.41 180.91-12.71 180.03-14.01 180.03-16.17L180.03-16.17Q180.03-16.61 180.13-17.68L180.13-17.68Q180.47-20.67 181.84-22.36 183.22-24.05 185.67-24.79 188.12-25.52 191.99-25.52L191.99-25.52 193.99-25.52 200.9-25.47 200.26-20.28 191.35-20.28Q189.19-20.28 188.07-20.06 186.94-19.84 186.42-19.33 185.91-18.81 185.76-17.83L185.76-17.83Q185.71-17.59 185.71-17.19L185.71-17.19Q185.71-16.41 186.16-15.87L186.16-15.87Q186.65-15.28 187.6-15.06 188.56-14.84 191.15-14.55L191.15-14.55Q194.24-14.26 196.2-13.62L196.2-13.62Q197.91-13.03 198.82-11.61 199.73-10.19 199.73-7.94L199.73-7.94Q199.73-6.86 199.63-6.27L199.63-6.27Q199.04-1.71 196.2 0.12 193.36 1.96 187.48 1.96L187.48 1.96ZM210.8-11.22L209.18 1.71 203.55 1.71 208.35-36.89 213.98-36.89 211.38-15.92 222.31-25.52 230.24-25.52 215.79-13.28 227.8 1.71 220.5 1.71 210.8-11.22Z"
              transform="translate(-1.4200000762939453, 36.88999938964844)"></path>
          </g>
          <g fill="#73F6EF" data-gra-ignore="true" transform="translate(-1.5, -1.5)">
            <path
              d="M13.67 1.76L1.42 1.76 6.03-36.01 11.66-36.01 10.39-25.52 17.1-25.52Q22.19-25.52 24.74-23.17 27.29-20.82 27.29-16.22L27.29-16.22Q27.29-15.04 27.14-13.77L27.14-13.77 26.7-10.04Q25.28 1.76 13.67 1.76L13.67 1.76ZM7.69-3.48L14.3-3.48Q20.18-3.48 20.97-9.9L20.97-9.9 21.46-13.91Q21.55-14.89 21.55-15.28L21.55-15.28Q21.55-20.28 16.46-20.28L16.46-20.28 9.75-20.28 7.69-3.48ZM40.61-29.2L34.19-29.2 34.93-35.08 41.35-35.08 40.61-29.2ZM39.83-25.52L36.45 1.76 30.81 1.76 34.19-25.52 39.83-25.52ZM48.6 1.76L42.96 1.76 47.57-36.01 53.2-36.01 48.6 1.76ZM60.6 1.76L54.96 1.76 59.57-36.01 65.2-36.01 60.6 1.76ZM67.41-9.99L67.85-13.72Q69.27-25.52 80.49-25.52L80.49-25.52 86.91-25.52 88.18-36.01 93.81-36.01 89.21 1.76 77.4 1.76Q67.26 1.76 67.26-7.54L67.26-7.54Q67.26-8.67 67.41-9.99L67.41-9.99ZM78.04-3.48L84.21-3.48 86.27-20.38 79.85-20.38Q74.32-20.38 73.53-13.86L73.53-13.86 73.04-9.85Q72.94-8.87 72.94-8.43L72.94-8.43Q72.94-3.48 78.04-3.48L78.04-3.48ZM96.95-9.9L97.63-15.28 118.6-15.28 117.91-9.9 96.95-9.9ZM123.35-9.99L123.79-13.72Q125.21-25.52 136.43-25.52L136.43-25.52 142.85-25.52 144.12-36.01 149.76-36.01 145.15 1.76 133.35 1.76Q123.21 1.76 123.21-7.54L123.21-7.54Q123.21-8.67 123.35-9.99L123.35-9.99ZM133.98-3.48L140.16-3.48 142.21-20.38 135.8-20.38Q130.26-20.38 129.48-13.86L129.48-13.86 128.99-9.85Q128.89-8.87 128.89-8.43L128.89-8.43Q128.89-3.48 133.98-3.48L133.98-3.48ZM165.38-25.72L166.36-25.72Q171.41-25.72 173.98-23.34 176.55-20.97 176.55-16.31L176.55-16.31Q176.55-15.24 176.41-13.96L176.41-13.96 175.87-9.55 157.6-9.55 157.6-9.5Q157.5-8.43 157.5-8.03L157.5-8.03Q157.5-5.54 158.94-4.34 160.39-3.14 163.82-3.14L163.82-3.14 166.22-3.14Q168.76-3.14 173.96-3.58L173.96-3.58 173.42 1.52Q169.11 1.96 165.68 1.96L165.68 1.96 163.28 1.96Q157.35 1.96 154.58-0.44 151.81-2.84 151.81-7.5L151.81-7.5Q151.81-8.62 151.96-9.8L151.96-9.8 152.45-13.91Q153.14-19.79 156.32-22.76 159.51-25.72 165.38-25.72L165.38-25.72ZM158.18-14.3L170.82-14.3 170.82-14.35Q170.92-15.43 170.92-15.92L170.92-15.92Q170.92-18.27 169.67-19.5 168.42-20.72 165.73-20.72L165.73-20.72 164.75-20.72Q158.97-20.72 158.18-14.3L158.18-14.3ZM187.48 1.96L185.81 1.96Q181.31 1.86 178.02 1.57L178.02 1.57 178.76-3.72Q183.56-3.28 186.45-3.18L186.45-3.18 188.12-3.18Q191.25-3.18 192.5-3.97 193.75-4.75 194.04-6.22L194.04-6.22Q194.09-6.47 194.09-6.91L194.09-6.91Q194.09-8.13 193.7-8.52L193.7-8.52Q193.36-9.06 192.57-9.26 191.79-9.45 189.58-9.7L189.58-9.7 188.46-9.85Q185.91-10.04 183.61-10.73L183.61-10.73Q181.8-11.41 180.91-12.71 180.03-14.01 180.03-16.17L180.03-16.17Q180.03-16.61 180.13-17.68L180.13-17.68Q180.47-20.67 181.84-22.36 183.22-24.05 185.67-24.79 188.12-25.52 191.99-25.52L191.99-25.52 193.99-25.52 200.9-25.47 200.26-20.28 191.35-20.28Q189.19-20.28 188.07-20.06 186.94-19.84 186.42-19.33 185.91-18.81 185.76-17.83L185.76-17.83Q185.71-17.59 185.71-17.19L185.71-17.19Q185.71-16.41 186.16-15.87L186.16-15.87Q186.65-15.28 187.6-15.06 188.56-14.84 191.15-14.55L191.15-14.55Q194.24-14.26 196.2-13.62L196.2-13.62Q197.91-13.03 198.82-11.61 199.73-10.19 199.73-7.94L199.73-7.94Q199.73-6.86 199.63-6.27L199.63-6.27Q199.04-1.71 196.2 0.12 193.36 1.96 187.48 1.96L187.48 1.96ZM210.8-11.22L209.18 1.71 203.55 1.71 208.35-36.89 213.98-36.89 211.38-15.92 222.31-25.52 230.24-25.52 215.79-13.28 227.8 1.71 220.5 1.71 210.8-11.22Z"
              transform="translate(-1.4200000762939453, 36.88999938964844)"></path>
          </g>
          <g>
            <path
              d="M13.67 1.76L1.42 1.76 6.03-36.01 11.66-36.01 10.39-25.52 17.1-25.52Q22.19-25.52 24.74-23.17 27.29-20.82 27.29-16.22L27.29-16.22Q27.29-15.04 27.14-13.77L27.14-13.77 26.7-10.04Q25.28 1.76 13.67 1.76L13.67 1.76ZM7.69-3.48L14.3-3.48Q20.18-3.48 20.97-9.9L20.97-9.9 21.46-13.91Q21.55-14.89 21.55-15.28L21.55-15.28Q21.55-20.28 16.46-20.28L16.46-20.28 9.75-20.28 7.69-3.48ZM40.61-29.2L34.19-29.2 34.93-35.08 41.35-35.08 40.61-29.2ZM39.83-25.52L36.45 1.76 30.81 1.76 34.19-25.52 39.83-25.52ZM48.6 1.76L42.96 1.76 47.57-36.01 53.2-36.01 48.6 1.76ZM60.6 1.76L54.96 1.76 59.57-36.01 65.2-36.01 60.6 1.76ZM67.41-9.99L67.85-13.72Q69.27-25.52 80.49-25.52L80.49-25.52 86.91-25.52 88.18-36.01 93.81-36.01 89.21 1.76 77.4 1.76Q67.26 1.76 67.26-7.54L67.26-7.54Q67.26-8.67 67.41-9.99L67.41-9.99ZM78.04-3.48L84.21-3.48 86.27-20.38 79.85-20.38Q74.32-20.38 73.53-13.86L73.53-13.86 73.04-9.85Q72.94-8.87 72.94-8.43L72.94-8.43Q72.94-3.48 78.04-3.48L78.04-3.48ZM96.95-9.9L97.63-15.28 118.6-15.28 117.91-9.9 96.95-9.9ZM123.35-9.99L123.79-13.72Q125.21-25.52 136.43-25.52L136.43-25.52 142.85-25.52 144.12-36.01 149.76-36.01 145.15 1.76 133.35 1.76Q123.21 1.76 123.21-7.54L123.21-7.54Q123.21-8.67 123.35-9.99L123.35-9.99ZM133.98-3.48L140.16-3.48 142.21-20.38 135.8-20.38Q130.26-20.38 129.48-13.86L129.48-13.86 128.99-9.85Q128.89-8.87 128.89-8.43L128.89-8.43Q128.89-3.48 133.98-3.48L133.98-3.48ZM165.38-25.72L166.36-25.72Q171.41-25.72 173.98-23.34 176.55-20.97 176.55-16.31L176.55-16.31Q176.55-15.24 176.41-13.96L176.41-13.96 175.87-9.55 157.6-9.55 157.6-9.5Q157.5-8.43 157.5-8.03L157.5-8.03Q157.5-5.54 158.94-4.34 160.39-3.14 163.82-3.14L163.82-3.14 166.22-3.14Q168.76-3.14 173.96-3.58L173.96-3.58 173.42 1.52Q169.11 1.96 165.68 1.96L165.68 1.96 163.28 1.96Q157.35 1.96 154.58-0.44 151.81-2.84 151.81-7.5L151.81-7.5Q151.81-8.62 151.96-9.8L151.96-9.8 152.45-13.91Q153.14-19.79 156.32-22.76 159.51-25.72 165.38-25.72L165.38-25.72ZM158.18-14.3L170.82-14.3 170.82-14.35Q170.92-15.43 170.92-15.92L170.92-15.92Q170.92-18.27 169.67-19.5 168.42-20.72 165.73-20.72L165.73-20.72 164.75-20.72Q158.97-20.72 158.18-14.3L158.18-14.3ZM187.48 1.96L185.81 1.96Q181.31 1.86 178.02 1.57L178.02 1.57 178.76-3.72Q183.56-3.28 186.45-3.18L186.45-3.18 188.12-3.18Q191.25-3.18 192.5-3.97 193.75-4.75 194.04-6.22L194.04-6.22Q194.09-6.47 194.09-6.91L194.09-6.91Q194.09-8.13 193.7-8.52L193.7-8.52Q193.36-9.06 192.57-9.26 191.79-9.45 189.58-9.7L189.58-9.7 188.46-9.85Q185.91-10.04 183.61-10.73L183.61-10.73Q181.8-11.41 180.91-12.71 180.03-14.01 180.03-16.17L180.03-16.17Q180.03-16.61 180.13-17.68L180.13-17.68Q180.47-20.67 181.84-22.36 183.22-24.05 185.67-24.79 188.12-25.52 191.99-25.52L191.99-25.52 193.99-25.52 200.9-25.47 200.26-20.28 191.35-20.28Q189.19-20.28 188.07-20.06 186.94-19.84 186.42-19.33 185.91-18.81 185.76-17.83L185.76-17.83Q185.71-17.59 185.71-17.19L185.71-17.19Q185.71-16.41 186.16-15.87L186.16-15.87Q186.65-15.28 187.6-15.06 188.56-14.84 191.15-14.55L191.15-14.55Q194.24-14.26 196.2-13.62L196.2-13.62Q197.91-13.03 198.82-11.61 199.73-10.19 199.73-7.94L199.73-7.94Q199.73-6.86 199.63-6.27L199.63-6.27Q199.04-1.71 196.2 0.12 193.36 1.96 187.48 1.96L187.48 1.96ZM210.8-11.22L209.18 1.71 203.55 1.71 208.35-36.89 213.98-36.89 211.38-15.92 222.31-25.52 230.24-25.52 215.79-13.28 227.8 1.71 220.5 1.71 210.8-11.22Z"
              transform="translate(-1.4200000762939453, 36.88999938964844)"></path>
          </g>
        </g>
      </g>
    </g> <!---->
  </g>
  <defs v-gra="od"></defs>
</svg>
