<svg width="238" height="48" xmlns="http://www.w3.org/2000/svg"><g class="basesvg" fill="#F9D849"><g class="tp-name"><path d="M20.34 43.725H8.09l4.61-37.77h5.63l-1.27 10.49h6.71q5.09 0 7.64 2.35t2.55 6.95q0 1.18-.15 2.45l-.44 3.73q-1.42 11.8-13.03 11.8zm-5.98-5.24h6.61q5.88 0 6.67-6.42l.49-4.01q.09-.98.09-1.37 0-5-5.09-5h-6.71l-2.06 16.8zm32.92-25.72h-6.42l.74-5.88h6.42l-.74 5.88zm-.78 3.68-3.38 27.28h-5.64l3.38-27.28h5.64zm8.77 27.28h-5.64l4.61-37.77h5.63l-4.6 37.77zm12 0h-5.64l4.61-37.77h5.63l-4.6 37.77zm6.81-11.75.44-3.73q1.42-11.8 12.64-11.8h6.42l1.27-10.49h5.63l-4.6 37.77H84.07q-10.14 0-10.14-9.3 0-1.13.15-2.45zm10.63 6.51h6.17l2.06-16.9h-6.42q-5.53 0-6.32 6.52l-.49 4.01q-.1.98-.1 1.42 0 4.95 5.1 4.95zm18.91-6.42.68-5.38h20.97l-.69 5.38h-20.96zm26.4-.09.44-3.73q1.42-11.8 12.64-11.8h6.42l1.27-10.49h5.64l-4.61 37.77h-11.8q-10.14 0-10.14-9.3 0-1.13.14-2.45zm10.63 6.51h6.18l2.05-16.9h-6.41q-5.54 0-6.32 6.52l-.49 4.01q-.1.98-.1 1.42 0 4.95 5.09 4.95zm31.4-22.24h.98q5.05 0 7.62 2.38 2.57 2.37 2.57 7.03 0 1.07-.14 2.35l-.54 4.41h-18.27v.05q-.1 1.07-.1 1.47 0 2.49 1.44 3.69 1.45 1.2 4.88 1.2h2.4q2.54 0 7.74-.44l-.54 5.1q-4.31.44-7.74.44h-2.4q-5.93 0-8.7-2.4-2.77-2.4-2.77-7.06 0-1.12.15-2.3l.49-4.11q.69-5.88 3.87-8.85 3.19-2.96 9.06-2.96zm-7.2 11.42h12.64v-.05q.1-1.08.1-1.57 0-2.35-1.25-3.58-1.25-1.22-3.94-1.22h-.98q-5.78 0-6.57 6.42zm29.3 16.26h-1.67q-4.5-.1-7.79-.39l.74-5.29q4.8.44 7.69.54h1.67q3.13 0 4.38-.79 1.25-.78 1.54-2.25.05-.25.05-.69 0-1.22-.39-1.61-.34-.54-1.13-.74-.78-.19-2.99-.44l-1.12-.15q-2.55-.19-4.85-.88-1.81-.68-2.7-1.98-.88-1.3-.88-3.46 0-.44.1-1.51.34-2.99 1.71-4.68 1.38-1.69 3.83-2.43 2.45-.73 6.32-.73h2l6.91.05-.64 5.19h-8.91q-2.16 0-3.28.22-1.13.22-1.65.73-.51.52-.66 1.5-.05.24-.05.64 0 .78.45 1.32.49.59 1.44.81.96.22 3.55.51 3.09.29 5.05.93 1.71.59 2.62 2.01.91 1.42.91 3.67 0 1.08-.1 1.67-.59 4.56-3.43 6.39-2.84 1.84-8.72 1.84zm23.32-13.18-1.62 12.93h-5.63l4.8-38.6h5.63l-2.6 20.97 10.93-9.6h7.93l-14.45 12.24 12.01 14.99h-7.3l-9.7-12.93z" data-gra-ignore="true" fill="#EA3355"/><path d="M17.34 40.725H5.09L9.7 2.955h5.63l-1.27 10.49h6.71q5.09 0 7.64 2.35t2.55 6.95q0 1.18-.15 2.45l-.44 3.73q-1.42 11.8-13.03 11.8zm-5.98-5.24h6.61q5.88 0 6.67-6.42l.49-4.01q.09-.98.09-1.37 0-5-5.09-5h-6.71l-2.06 16.8zm32.92-25.72h-6.42l.74-5.88h6.42l-.74 5.88zm-.78 3.68-3.38 27.28h-5.64l3.38-27.28h5.64zm8.77 27.28h-5.64l4.61-37.77h5.63l-4.6 37.77zm12 0h-5.64l4.61-37.77h5.63l-4.6 37.77zm6.81-11.75.44-3.73q1.42-11.8 12.64-11.8h6.42l1.27-10.49h5.63l-4.6 37.77H81.07q-10.14 0-10.14-9.3 0-1.13.15-2.45zm10.63 6.51h6.17l2.06-16.9h-6.42q-5.53 0-6.32 6.52l-.49 4.01q-.1.98-.1 1.42 0 4.95 5.1 4.95zm18.91-6.42.68-5.38h20.97l-.69 5.38h-20.96zm26.4-.09.44-3.73q1.42-11.8 12.64-11.8h6.42l1.27-10.49h5.64l-4.61 37.77h-11.8q-10.14 0-10.14-9.3 0-1.13.14-2.45zm10.63 6.51h6.18l2.05-16.9h-6.41q-5.54 0-6.32 6.52l-.49 4.01q-.1.98-.1 1.42 0 4.95 5.09 4.95zm31.4-22.24h.98q5.05 0 7.62 2.38 2.57 2.37 2.57 7.03 0 1.07-.14 2.35l-.54 4.41h-18.27v.05q-.1 1.07-.1 1.47 0 2.49 1.44 3.69 1.45 1.2 4.88 1.2h2.4q2.54 0 7.74-.44l-.54 5.1q-4.31.44-7.74.44h-2.4q-5.93 0-8.7-2.4-2.77-2.4-2.77-7.06 0-1.12.15-2.3l.49-4.11q.69-5.88 3.87-8.85 3.19-2.96 9.06-2.96zm-7.2 11.42h12.64v-.05q.1-1.08.1-1.57 0-2.35-1.25-3.58-1.25-1.22-3.94-1.22h-.98q-5.78 0-6.57 6.42zm29.3 16.26h-1.67q-4.5-.1-7.79-.39l.74-5.29q4.8.44 7.69.54h1.67q3.13 0 4.38-.79 1.25-.78 1.54-2.25.05-.25.05-.69 0-1.22-.39-1.61-.34-.54-1.13-.74-.78-.19-2.99-.44l-1.12-.15q-2.55-.19-4.85-.88-1.81-.68-2.7-1.98-.88-1.3-.88-3.46 0-.44.1-1.51.34-2.99 1.71-4.68 1.38-1.69 3.83-2.43 2.45-.73 6.32-.73h2l6.91.05-.64 5.19h-8.91q-2.16 0-3.28.22-1.13.22-1.65.73-.51.52-.66 1.5-.05.24-.05.64 0 .78.45 1.32.49.59 1.44.81.96.22 3.55.51 3.09.29 5.05.93 1.71.59 2.62 2.01.91 1.42.91 3.67 0 1.08-.1 1.67-.59 4.56-3.43 6.39-2.84 1.84-8.72 1.84zm23.32-13.18-1.62 12.93h-5.63l4.8-38.6h5.63l-2.6 20.97 10.93-9.6h7.93l-14.45 12.24 12.01 14.99h-7.3l-9.7-12.93z" data-gra-ignore="true" fill="#73F6EF"/><path d="M18.84 42.225H6.59l4.61-37.77h5.63l-1.27 10.49h6.71q5.09 0 7.64 2.35t2.55 6.95q0 1.18-.15 2.45l-.44 3.73q-1.42 11.8-13.03 11.8zm-5.98-5.24h6.61q5.88 0 6.67-6.42l.49-4.01q.09-.98.09-1.37 0-5-5.09-5h-6.71l-2.06 16.8zm32.92-25.72h-6.42l.74-5.88h6.42l-.74 5.88zm-.78 3.68-3.38 27.28h-5.64l3.38-27.28H45zm8.77 27.28h-5.64l4.61-37.77h5.63l-4.6 37.77zm12 0h-5.64l4.61-37.77h5.63l-4.6 37.77zm6.81-11.75.44-3.73q1.42-11.8 12.64-11.8h6.42l1.27-10.49h5.63l-4.6 37.77H82.57q-10.14 0-10.14-9.3 0-1.13.15-2.45zm10.63 6.51h6.17l2.06-16.9h-6.42q-5.53 0-6.32 6.52l-.49 4.01q-.1.98-.1 1.42 0 4.95 5.1 4.95zm18.91-6.42.68-5.38h20.97l-.69 5.38h-20.96zm26.4-.09.44-3.73q1.42-11.8 12.64-11.8h6.42l1.27-10.49h5.64l-4.61 37.77h-11.8q-10.14 0-10.14-9.3 0-1.13.14-2.45zm10.63 6.51h6.18l2.05-16.9h-6.41q-5.54 0-6.32 6.52l-.49 4.01q-.1.98-.1 1.42 0 4.95 5.09 4.95zm31.4-22.24h.98q5.05 0 7.62 2.38 2.57 2.37 2.57 7.03 0 1.07-.14 2.35l-.54 4.41h-18.27v.05q-.1 1.07-.1 1.47 0 2.49 1.44 3.69 1.45 1.2 4.88 1.2h2.4q2.54 0 7.74-.44l-.54 5.1q-4.31.44-7.74.44h-2.4q-5.93 0-8.7-2.4-2.77-2.4-2.77-7.06 0-1.12.15-2.3l.49-4.11q.69-5.88 3.87-8.85 3.19-2.96 9.06-2.96zm-7.2 11.42h12.64v-.05q.1-1.08.1-1.57 0-2.35-1.25-3.58-1.25-1.22-3.94-1.22h-.98q-5.78 0-6.57 6.42zm29.3 16.26h-1.67q-4.5-.1-7.79-.39l.74-5.29q4.8.44 7.69.54h1.67q3.13 0 4.38-.79 1.25-.78 1.54-2.25.05-.25.05-.69 0-1.22-.39-1.61-.34-.54-1.13-.74-.78-.19-2.99-.44l-1.12-.15q-2.55-.19-4.85-.88-1.81-.68-2.7-1.98-.88-1.3-.88-3.46 0-.44.1-1.51.34-2.99 1.71-4.68 1.38-1.69 3.83-2.43 2.45-.73 6.32-.73h2l6.91.05-.64 5.19h-8.91q-2.16 0-3.28.22-1.13.22-1.65.73-.51.52-.66 1.5-.05.24-.05.64 0 .78.45 1.32.49.59 1.44.81.96.22 3.55.51 3.09.29 5.05.93 1.71.59 2.62 2.01.91 1.42.91 3.67 0 1.08-.1 1.67-.59 4.56-3.43 6.39-2.84 1.84-8.72 1.84zm23.32-13.18-1.62 12.93h-5.63l4.8-38.6h5.63l-2.6 20.97 10.93-9.6h7.93l-14.45 12.24 12.01 14.99h-7.3l-9.7-12.93z"/></g></g></svg>